Coordinates
version=1
nRows=24
nColumns=22
inDegrees=yes

Units are S.I. units (second, meters, Newtons, ...)
If the header above contains a line with 'inDegrees', this indicates whether rotational values are in degrees (yes) or radians (no).

endheader
time	pelvis_tilt	pelvis_list	pelvis_rotation	pelvis_tx	pelvis_ty	pelvis_tz	hip_flexion_r	hip_adduction_r	hip_rotation_r	knee_angle_r	ankle_angle_r	subtalar_angle_r	hip_flexion_l	hip_adduction_l	hip_rotation_l	knee_angle_l	ankle_angle_l	subtalar_angle_l	lumbar_extension	lumbar_bending	lumbar_rotation
      0.01000000	     -4.51597065	     -2.34534973	     -1.96828972	      0.08734145	      0.95824072	      1.21081370	      7.55313505	      2.93517605	     -3.67728186	    -11.36044191	      9.99982439	      0.00892920	      6.44030911	     -3.75971523	     -6.71793651	    -12.01218226	      8.93919570	     -5.23558256	     -2.46548154	      0.14597366	     -0.19012767
      0.02000000	     -4.50824526	     -2.34487411	     -1.97536142	      0.08732358	      0.95825708	      1.21081922	      7.57056060	      2.93526708	     -3.66237582	    -11.40190702	      9.99689548	      0.02364136	      6.43667677	     -3.75929510	     -6.72451325	    -12.02061324	      8.93102588	     -5.24804102	     -2.48519173	      0.14102911	     -0.20291124
      0.03000000	     -4.51431055	     -2.33389711	     -1.99844421	      0.08729611	      0.95824683	      1.21084542	      7.62173089	      2.92476511	     -3.65017433	    -11.47376190	     10.02656010	      0.06656917	      6.44698492	     -3.74993245	     -6.75164040	    -12.03052844	      8.92117279	     -5.28915411	     -2.48948044	      0.12151891	     -0.18143313
      0.04000000	     -4.50897370	     -2.33590995	     -2.00510307	      0.08728591	      0.95825936	      1.21084699	      7.64683700	      2.92797735	     -3.62769690	    -11.52509197	     10.02179108	      0.07305995	      6.44416035	     -3.75195455	     -6.75196953	    -12.03663953	      8.91917150	     -5.29431288	     -2.50620214	      0.12068249	     -0.20752349
      0.05000000	     -4.50249787	     -2.33582291	     -2.01890883	      0.08726427	      0.95826935	      1.21085773	      7.68445346	      2.92889411	     -3.60811991	    -11.59938721	     10.02413447	      0.07793841	      6.44222327	     -3.75267475	     -6.75565658	    -12.04824409	      8.91920136	     -5.30066936	     -2.52657199	      0.11662152	     -0.21685491
      0.06000000	     -4.49882905	     -2.33263079	     -2.03828401	      0.08724823	      0.95827293	      1.21087769	      7.72935055	      2.92764900	     -3.58912286	    -11.68079554	     10.03460460	      0.08101140	      6.44140713	     -3.75063890	     -6.76824994	    -12.05881547	      8.92123466	     -5.30800251	     -2.54138331	      0.10865278	     -0.21870980
      0.07000000	     -4.51984010	     -2.31207088	     -2.07728280	      0.08724360	      0.95822869	      1.21092234	      7.81180476	      2.90933436	     -3.56301360	    -11.78310279	     10.08321553	      0.08561517	      6.46670936	     -3.73419994	     -6.81952185	    -12.07351926	      8.92421540	     -5.32688535	     -2.52166468	      0.07963398	     -0.17707629
      0.08000000	     -4.51491008	     -2.31325979	     -2.09147031	      0.08725386	      0.95823617	      1.21092762	      7.83873238	      2.91255213	     -3.53765220	    -11.83873061	     10.07934418	      0.08645446	      6.46221763	     -3.73542855	     -6.82337168	    -12.08090530	      8.92256923	     -5.32965562	     -2.53406451	      0.08104857	     -0.20115510
      0.09000000	     -4.50967510	     -2.31153011	     -2.11343025	      0.08727010	      0.95823720	      1.21094713	      7.87239628	      2.91289050	     -3.51558923	    -11.90804000	     10.08631863	      0.08512188	      6.45657620	     -3.73477532	     -6.83572012	    -12.09018261	      8.92505853	     -5.33490318	     -2.54467222	      0.07823557	     -0.20269313
      0.10000000	     -4.52299560	     -2.29363141	     -2.15474885	      0.08730807	      0.95820280	      1.21098586	      7.92740553	      2.89755458	     -3.47926027	    -11.98165585	     10.12796901	      0.07872163	      6.46671617	     -3.72012822	     -6.89223503	    -12.09740619	      8.93123741	     -5.35109599	     -2.52638710	      0.05623339	     -0.16302017
      0.11000000	     -4.51992843	     -2.29350007	     -2.16916582	      0.08736200	      0.95820317	      1.21099744	      7.94049950	      2.89978245	     -3.46069073	    -12.01483901	     10.12747433	      0.07751080	      6.45906749	     -3.72002059	     -6.89897244	    -12.09998606	      8.93159338	     -5.35386426	     -2.52777962	      0.05769872	     -0.18200815
      0.12000000	     -4.51802014	     -2.29341288	     -2.17862709	      0.08745517	      0.95820173	      1.21099966	      7.93883299	      2.90008858	     -3.45802527	    -12.02404044	     10.12831722	      0.07705298	      6.45216094	     -3.71960694	     -6.89981429	    -12.10566521	      8.93185312	     -5.35455211	     -2.51885519	      0.05743732	     -0.18592793
      0.13000000	     -4.51430889	     -2.29024854	     -2.20489527	      0.08751686	      0.95819644	      1.21102483	      7.95787269	      2.89979555	     -3.42590236	    -12.07181650	     10.14267075	      0.07240146	      6.43574665	     -3.71732854	     -6.93008821	    -12.09693556	      8.94217437	     -5.36205907	     -2.51866437	      0.05645297	     -0.20038454
      0.14000000	     -4.51326126	     -2.28941625	     -2.21894390	      0.08761804	      0.95819230	      1.21103803	      7.95340336	      2.90039954	     -3.42518985	    -12.07554180	     10.14439760	      0.07181962	      6.42865928	     -3.71615024	     -6.93081731	    -12.10370177	      8.94226982	     -5.36264866	     -2.50678763	      0.05532739	     -0.20308770
      0.15000000	     -4.51739845	     -2.28173130	     -2.25604558	      0.08773619	      0.95817351	      1.21108692	      7.95793134	      2.89735269	     -3.38193775	    -12.08655834	     10.17169153	      0.06347659	      6.40909576	     -3.71199990	     -6.98700001	    -12.08310305	      8.95756101	     -5.37303838	     -2.48434433	      0.04856776	     -0.20567107
      0.16000000	     -4.51603560	     -2.28099941	     -2.27302768	      0.08783972	      0.95816846	      1.21110959	      7.95214549	      2.89825312	     -3.38142866	    -12.08905255	     10.17231541	      0.06285964	      6.40145087	     -3.71171608	     -6.98626915	    -12.09170327	      8.95671647	     -5.37333708	     -2.47176007	      0.04741465	     -0.20903035
      0.17000000	     -4.51750283	     -2.27707218	     -2.31988263	      0.08796204	      0.95815860	      1.21118468	      7.94147898	      2.90310855	     -3.32137190	    -12.07768801	     10.18648515	      0.04956067	      6.38199199	     -3.71313666	     -7.04516507	    -12.08218871	      8.96026855	     -5.38500900	     -2.45227350	      0.04280007	     -0.19004072
      0.18000000	     -4.51628605	     -2.27692798	     -2.33465360	      0.08806935	      0.95815296	      1.21120556	      7.93478461	      2.90423166	     -3.32221180	    -12.08065908	     10.18644230	      0.04912007	      6.37361944	     -3.71328788	     -7.04480326	    -12.08810223	      8.95990925	     -5.38535092	     -2.43724637	      0.04319624	     -0.19784901
      0.19000000	     -4.52350476	     -2.27941806	     -2.35775591	      0.08819424	      0.95813658	      1.21123952	      7.92786230	      2.91016563	     -3.31340879	    -12.06627640	     10.19169663	      0.04643477	      6.35909815	     -3.71755025	     -7.06821671	    -12.06933991	      8.96357202	     -5.39029905	     -2.41154321	      0.05007777	     -0.22840939
      0.20000000	     -4.52256413	     -2.27954757	     -2.37221776	      0.08830748	      0.95813016	      1.21126082	      7.92027854	      2.91147461	     -3.31257053	    -12.06753955	     10.19204377	      0.04602268	      6.35029525	     -3.71836527	     -7.06888299	    -12.07587107	      8.96281297	     -5.39119451	     -2.39532346	      0.05094689	     -0.23502879
      0.21000000	     -4.53109209	     -2.28492102	     -2.39568382	      0.08844946	      0.95811315	      1.21129872	      7.90597731	      2.92229269	     -3.28469420	    -12.04114054	     10.19766934	      0.04302677	      6.33591966	     -3.72684750	     -7.10562312	    -12.05563825	      8.96259990	     -5.40333313	     -2.36527039	      0.06123587	     -0.26039541
      0.22000000	     -4.53367170	     -2.28903667	     -2.42463604	      0.08856752	      0.95810611	      1.21134149	      7.89201554	      2.93178230	     -3.25013013	    -12.02310442	     10.19598163	      0.03979377	      6.32249253	     -3.73431474	     -7.13648204	    -12.04959245	      8.95897048	     -5.42090354	     -2.34900473	      0.06849645	     -0.27010773
      0.23000000	     -4.53460722	     -2.28858550	     -2.44374544	      0.08866833	      0.95809864	      1.21136462	      7.88713562	      2.93259720	     -3.25026091	    -12.02328803	     10.19586883	      0.03953019	      6.31583428	     -3.73428006	     -7.13570523	    -12.05618251	      8.95816683	     -5.42217351	     -2.34045438	      0.06936240	     -0.27696822
      0.24000000	     -4.53574552	     -2.29268948	     -2.48232542	      0.08878815	      0.95809715	      1.21142578	      7.86709050	      2.94511731	     -3.18902233	    -11.99607768	     10.19386887	      0.03552832	      6.29800203	     -3.74355753	     -7.19100947	    -12.04685277	      8.95524945	     -5.45605838	     -2.33069119	      0.07623494	     -0.28016337
